<?xml version="1.0" encoding="UTF-8" standalone="no"?>
<!-- Created with Inkscape (http://www.inkscape.org/) -->

<svg
   xmlns:dc="http://purl.org/dc/elements/1.1/"
   xmlns:cc="http://creativecommons.org/ns#"
   xmlns:rdf="http://www.w3.org/1999/02/22-rdf-syntax-ns#"
   xmlns:svg="http://www.w3.org/2000/svg"
   xmlns="http://www.w3.org/2000/svg"
   xmlns:sodipodi="http://sodipodi.sourceforge.net/DTD/sodipodi-0.dtd"
   xmlns:inkscape="http://www.inkscape.org/namespaces/inkscape"
   viewBox="0 0 200 50.000001"
   id="svg2"
   version="1.1"
   inkscape:version="0.91 r13725"
   sodipodi:docname="start_button.svg">
  <defs
     id="defs4" />
  <sodipodi:namedview
     id="base"
     pagecolor="#ffffff"
     bordercolor="#666666"
     borderopacity="1.0"
     inkscape:pageopacity="0.0"
     inkscape:pageshadow="2"
     inkscape:zoom="2.8"
     inkscape:cx="47.572784"
     inkscape:cy="7.3779606"
     inkscape:document-units="px"
     inkscape:current-layer="text3338"
     showgrid="false"
     units="px"
     inkscape:window-width="1366"
     inkscape:window-height="715"
     inkscape:window-x="-8"
     inkscape:window-y="-8"
     inkscape:window-maximized="1" />
  <metadata
     id="metadata7">
    <rdf:RDF>
      <cc:Work
         rdf:about="">
        <dc:format>image/svg+xml</dc:format>
        <dc:type
           rdf:resource="http://purl.org/dc/dcmitype/StillImage" />
        <dc:title />
      </cc:Work>
    </rdf:RDF>
  </metadata>
  <g
     inkscape:label="レイヤー 1"
     inkscape:groupmode="layer"
     id="layer1"
     transform="translate(0,-1002.3622)">
    <rect
       style="opacity:1;fill:#f7f6f5;fill-opacity:1;fill-rule:nonzero;stroke:#ffffff;stroke-width:0;stroke-linecap:round;stroke-linejoin:round;stroke-miterlimit:4;stroke-dasharray:none;stroke-dashoffset:0;stroke-opacity:1"
       id="rect3336"
       width="200"
       height="49.999989"
       x="1.774636e-006"
       y="1002.3622" />
    <g
       transform="scale(0.95409142,1.0481176)"
       style="font-style:normal;font-variant:normal;font-weight:normal;font-stretch:normal;font-size:27.37687111px;line-height:125%;font-family:'Gen Shin Gothic';-inkscape-font-specification:'Gen Shin Gothic, Normal';text-align:start;letter-spacing:0px;word-spacing:0px;writing-mode:lr-tb;text-anchor:start;fill:#000000;fill-opacity:1;stroke:none;stroke-width:1px;stroke-linecap:butt;stroke-linejoin:miter;stroke-opacity:1"
       id="text3338">
      <path
         d="m 38.517429,978.1778 c 0.547537,-0.10951 0.821306,-0.0274 0.903437,-0.62967 0.136884,-0.95819 0,-1.97113 -0.136885,-2.92932 -0.05475,-0.57492 -0.136884,-1.14983 -0.219015,-1.69737 -0.05475,-0.30114 -0.05475,-0.98557 -0.273768,-1.20458 -0.219015,-0.21902 -0.766553,-0.16426 -1.012945,-0.19164 -1.971134,-0.16426 -4.079153,0.41065 -6.050288,0.62967 0.02738,-1.0677 -0.02738,-2.21753 -0.273769,-3.25785 -0.219015,-0.93081 -0.848683,-1.20458 -1.724743,-1.25933 -2.354411,-0.0548 -4.654068,0.62966 -6.981102,0.90343 0.848683,3.39473 0.848683,6.92635 1.423597,10.34846 -3.367355,-0.16426 -7.419132,1.58786 -8.897483,4.76358 -1.314089,2.81981 -0.657045,6.84421 1.806874,8.8701 2.244903,1.80688 5.557505,1.88901 8.267815,1.34147 2.71031,-0.52016 5.940781,-1.88901 7.008479,-4.68145 0.903437,0.60229 1.75212,1.34147 2.655556,1.97114 0.684422,0.43803 0.903437,0.68442 1.478351,0.10951 0.821307,-0.84869 1.560482,-1.83425 2.244904,-2.79245 0.684422,-0.95819 0.52016,-1.69736 -0.273769,-2.54604 -0.684422,-0.76656 -1.560481,-1.39622 -2.381788,-2.02589 -0.930813,-0.68442 -1.916381,-1.34147 -2.984079,-1.7795 -0.355899,-0.13688 -0.465406,-0.0548 -0.52016,-0.46541 l -0.08213,-0.84868 -0.246392,-1.99851 c 1.122452,-0.0548 2.244904,-0.0821 3.367356,-0.19164 1.177205,-0.13688 1.943757,-0.30114 2.901948,-0.43803 z m -1.478351,10.6496 c -0.301146,0.3559 -0.629668,0.68443 -0.985567,1.01295 -0.109508,0.24639 -0.246392,0.24639 -0.383277,0.0274 -0.164261,-0.19164 -0.328522,-0.3559 -0.492783,-0.52017 -0.547538,-0.57491 -1.095075,-1.1772 -1.75212,-1.64261 -0.739176,-0.54753 -1.642612,-0.84868 -2.491295,-1.23196 -0.02738,1.83425 -0.273769,3.50424 -1.587859,4.87309 -1.067698,1.09507 -2.518672,1.72474 -4.0244,1.97113 -2.765064,0.49278 -6.351434,0.19164 -8.185684,-2.2449 -1.615236,-2.19015 -1.642613,-5.55751 -0.328523,-7.88454 0.766553,-1.34147 2.053265,-2.32704 3.50424,-2.81982 1.83425,-0.62967 3.641124,-0.3559 5.447997,0.27377 -0.301146,-3.86014 -0.95819,-7.66552 -1.971135,-11.38878 1.587859,-0.21901 3.230471,-0.27377 4.81833,-0.0274 0.328522,0.0548 0.684421,0.13689 1.012944,0.21902 0.136884,0.46541 0.273769,0.93081 0.383276,1.36884 0.246392,0.93082 0.465407,1.86163 0.657045,2.81982 1.478351,-0.52016 3.011456,-0.90344 4.599314,-1.0677 0.821306,-0.0821 1.642613,-0.0821 2.491296,-0.0274 0.438029,0.0274 0.383276,0.41065 0.465406,0.8213 0.109508,0.43803 0.191638,0.90344 0.273769,1.36885 0.109508,0.73917 0.191638,1.47835 0.246392,2.21752 0.02738,0.57492 -0.164261,0.57492 -0.547538,0.62967 l -1.368843,0.24639 c -1.75212,0.27377 -3.531616,0.30115 -5.33849,0.32852 0.05475,1.17721 0.08213,2.40917 -0.08213,3.58637 -0.02738,0.30115 -0.164261,0.82131 0,1.09508 0.219015,0.30115 0.821307,0.32852 1.149829,0.49278 1.067698,0.52016 2.080642,1.17721 3.093586,1.83425 0.903437,0.57492 1.971135,1.17721 2.463919,2.16278 -0.136884,0.54753 -0.684422,1.06769 -1.067698,1.50572 z m -16.508253,-3.14834 c -0.301146,1.25934 0.328522,2.81982 1.368843,3.559 1.423597,1.01294 2.847195,0.13688 3.613747,-1.20458 0.355899,-0.62967 0.602291,-1.39623 0.465407,-2.10802 -0.164261,-0.87606 -0.848683,-1.20459 -1.669989,-1.31409 -0.821306,-0.0821 -3.367355,-0.7118 -3.778008,1.06769 z m 1.533104,2.29966 c -0.903436,-0.65704 -0.465406,-1.69736 0.02738,-2.19015 0.3559,-0.38327 1.012945,-0.49278 1.560482,-0.52016 0.465407,-0.0274 1.31409,0.13689 1.505728,0.60229 0.410653,0.95819 -0.273769,2.21753 -1.231959,2.51867 -0.629668,0.21902 -1.286713,0.0274 -1.861628,-0.41065 z"
         style="font-style:normal;font-variant:normal;font-weight:normal;font-stretch:normal;font-family:KFhimajiWAKU;-inkscape-font-specification:KFhimajiWAKU"
         id="path3337" />
      <path
         d="m 66.523968,984.25547 c -0.328522,-0.19164 -0.602291,-0.16426 -0.465407,-0.60229 0.164262,-0.43803 0.328523,-0.90344 0.465407,-1.36885 0.164261,-0.60229 0.657045,-1.66999 0.520161,-2.29966 -0.05475,-0.32852 -0.602292,-0.54753 -0.848683,-0.65704 -0.985568,-0.49278 -2.053266,-0.82131 -3.120964,-0.95819 -0.301145,-0.0548 -1.779496,-0.30115 -1.806873,0.16426 -0.08213,0.90344 -0.301146,1.7795 -0.410653,2.65556 -0.87606,-0.32853 -1.724743,-0.65705 -2.62818,-0.90344 0.520161,-1.7795 0.930814,-3.61375 1.067698,-5.448 0.08213,-0.95819 0.08213,-1.91638 0,-2.87457 -0.08213,-0.62967 -0.08213,-1.34147 -0.410653,-1.91638 -0.355899,-0.57491 -1.067698,-0.65704 -1.697366,-0.7118 -0.821306,-0.0821 -1.669989,-0.21901 -2.491295,-0.32852 -2.025889,-0.24639 -4.079154,-0.46541 -6.159796,-0.49278 -0.958191,0 -1.943758,0 -2.929325,0.0821 -0.3559,0.0274 -1.505728,-0.0548 -1.834251,0.19163 -0.301145,0.27377 -0.328522,1.53311 -0.383276,1.88901 -0.109507,0.98557 -0.136884,1.99851 -0.05475,3.01145 0.05475,0.82131 0.164261,1.64262 0.547538,2.38179 0.383276,0.65705 1.177205,0.43803 1.83425,0.41066 2.108019,-0.10951 4.216038,-0.46541 6.324057,-0.54754 -0.02738,0.87606 -0.328522,1.80687 -0.492783,2.68293 -0.05475,0.27377 -0.109508,0.54754 -0.136885,0.79393 -0.273768,-0.0274 -0.547537,-0.0548 -0.848683,-0.0548 -0.547537,-0.0274 -1.095075,0 -1.669989,0.0548 -1.779497,0.16426 -3.860139,0.60229 -5.283736,1.75212 -2.463918,1.99851 -3.011456,6.1598 -1.615235,8.92486 1.587858,3.09359 5.584881,4.0244 8.815352,3.39473 3.531616,-0.73917 6.378811,-3.44948 7.337002,-6.92635 0.492783,0.13689 1.669989,0.43803 1.587858,1.01295 -0.136884,0.76655 -0.355899,1.50573 -0.602291,2.2449 -0.191638,0.54754 -0.766553,1.45098 -0.739176,1.99851 0.02738,0.41066 0.629668,0.7118 0.958191,0.87606 0.629668,0.32853 1.31409,0.46541 1.998511,0.54754 0.657045,0.10951 1.122452,0.24639 1.560482,-0.32852 0.848683,-1.14983 1.724743,-2.54605 2.19015,-3.94227 0.355899,0.13688 1.012944,0.54754 1.39622,0.43803 0.383276,-0.10951 0.574915,-0.62967 0.684422,-0.93082 0.191638,-0.54753 0.383276,-1.06769 0.547537,-1.58785 0.109508,-0.30115 0.520161,-1.14983 0.328523,-1.45098 -0.43803,-0.7118 -0.958191,-0.87606 -1.533105,-1.1772 z m 0.328523,3.25784 c -0.136885,0.41066 -0.219015,0.87606 -0.520161,1.23196 -0.574914,-0.24639 -1.149829,-0.52016 -1.697366,-0.8213 -0.328522,0.98556 -0.848683,1.889 -1.450974,2.73768 -0.328523,0.43803 -0.629668,0.82131 -0.985568,1.23196 -0.273768,0.3559 -1.095074,0.0821 -1.533104,-0.0274 -0.219015,-0.0548 -0.43803,-0.13689 -0.629668,-0.21902 -0.328523,-0.16426 -0.109508,-0.30114 -0.02738,-0.57491 0.164261,-0.52016 0.328522,-1.01295 0.465407,-1.50573 0.164261,-0.57491 0.903436,-2.57343 0.301145,-2.98408 -0.903437,-0.60229 -1.998511,-1.09507 -3.066209,-1.23196 -0.684422,-0.0821 -0.739176,0.90344 -0.87606,1.4236 -0.465407,1.56048 -2.080642,2.87457 -3.367355,3.75063 -2.765064,1.7795 -7.145364,3.12096 -9.937805,0.68442 -2.765064,-2.46392 -1.83425,-8.45945 1.669989,-9.80092 2.272281,-0.84868 4.90046,-0.8213 7.309625,-0.68442 0,-0.90344 0.05475,-1.80687 0.109508,-2.71031 0.05475,-0.7118 0.273768,-1.5331 0.191638,-2.2449 -0.109508,-0.76656 -0.821306,-0.65705 -1.396221,-0.57492 -0.87606,0.10951 -1.779496,0.10951 -2.682933,0.16426 -0.87606,0.0274 -1.75212,0.0274 -2.62818,0 -0.355899,0 -1.122451,0.13689 -1.231959,-0.27377 -0.08213,-0.41065 -0.136884,-0.8213 -0.136884,-1.20458 -0.02738,-0.90343 0,-1.80687 0.05475,-2.68293 0.02738,-0.43803 -0.05475,-1.14983 0.43803,-1.23196 0.465407,-0.0821 0.958191,-0.13688 1.450975,-0.16426 1.806873,-0.19164 3.641123,-0.16426 5.447997,-0.13689 1.779497,0.0274 3.558993,0.13689 5.256359,0.7118 0.520161,0.16426 0.520161,0.21902 0.520161,0.76656 0,0.4654 -0.02738,0.95819 -0.08213,1.42359 -0.109507,0.98557 -0.273769,1.94376 -0.410653,2.92933 -0.273769,1.91638 -0.383276,3.88751 -0.657045,5.83127 1.642612,0.0274 3.257848,0.43803 4.818329,0.90344 0,-0.73918 0.219015,-1.4236 0.410653,-2.1354 0.08213,-0.32852 0.02738,-0.79393 0.410654,-0.79393 0.301145,0 0.602291,0.0274 0.903436,0.0548 0.629668,0.0821 1.231959,0.24639 1.806874,0.49278 0.301145,0.10951 0.547537,0.24639 0.821306,0.41065 0.328522,0.21902 0.05475,0.90344 -0.02738,1.23196 -0.164261,0.73918 -0.355899,1.47835 -0.547537,2.21753 -0.136885,0.52016 -0.08213,0.65704 0.410653,0.90344 0.465407,0.19163 0.930813,0.41065 1.341466,0.71179 0.383277,0.27377 0.328523,0.41066 0.219015,0.84869 -0.136884,0.4654 -0.301145,0.90343 -0.465406,1.34146 z m -16.864153,-3.6685 c -1.478351,-0.0548 -3.914893,0.21902 -4.46243,1.86163 -0.492784,1.4236 0.43803,3.12096 1.861627,3.58637 1.806874,0.60229 3.285225,-0.54754 3.887516,-2.21753 0.301145,-0.79392 0.821306,-1.80687 0.574914,-2.68293 -0.246392,-0.65704 -1.31409,-0.52016 -1.861627,-0.54754 -0.930814,-0.0274 0.52016,0.0274 0,0 z m -1.423597,4.46243 c -0.79393,0.13689 -2.381788,0.27377 -2.108019,-1.04032 0.136884,-0.60229 0.793929,-1.12245 1.122451,-1.64261 0.328523,-0.54754 0.848683,-0.87606 1.478351,-0.98557 0.629668,-0.1095 1.259336,-0.0274 1.889004,0.10951 0.465407,0.0821 0.02738,1.28671 -0.08213,1.64261 -0.191638,0.57492 -1.122452,1.69737 -2.299657,1.91638 z"
         style="font-style:normal;font-variant:normal;font-weight:normal;font-stretch:normal;font-family:KFhimajiWAKU;-inkscape-font-specification:KFhimajiWAKU"
         id="path3339" />
      <path
         d="m 94.147231,985.1589 c -0.355899,-0.43803 -1.177205,-1.01294 -1.259336,-1.5331 -0.191638,-1.61524 -0.602291,-3.17572 -0.848683,-4.79095 l -0.164261,-1.12246 c 0.328522,-0.1095 0.657045,-0.13688 1.012944,-0.16426 0.492784,-0.0548 0.985567,-0.0821 1.450974,-0.13688 0.629668,-0.0821 0.684422,-0.13689 0.684422,-0.79393 0,-0.57491 -0.02738,-1.14983 -0.05475,-1.72474 -0.05475,-0.87606 -0.136884,-1.86163 -1.149828,-2.10802 -0.547538,-0.10951 -1.122452,-0.10951 -1.697366,-0.0548 -0.3559,0.0274 -0.547538,0.19164 -0.602292,-0.21901 -0.05475,-0.46541 -0.08213,-0.93081 -0.136884,-1.39622 -0.109507,-0.65705 -0.191638,-1.34147 -0.43803,-1.97114 -0.273769,-0.62966 -1.012944,-0.49278 -1.615235,-0.52016 -1.642613,-0.0274 -3.257848,0.21902 -4.845706,0.52016 0.109507,0.52016 0.109507,1.0677 0.02738,1.58786 -0.02738,0.27377 -0.05475,0.52016 -0.109507,0.79393 -0.383276,-0.0274 -0.793929,-0.0274 -1.204582,-0.0548 -1.259336,-0.0274 -2.546049,0 -3.832762,0.10951 -0.79393,0.0821 -1.889004,-0.10951 -2.053266,0.8213 -0.08213,0.62967 -0.08213,1.28671 -0.08213,1.91638 0,1.0677 0.136884,2.16278 0.301145,3.23047 0.05475,0.30115 0.05475,0.79393 0.383276,0.93082 0.547538,0.21901 1.259337,0.19164 1.861628,0.21901 1.231959,0.0274 2.463918,-0.21901 3.723254,-0.24639 0.684422,0 1.368844,-0.0274 2.025889,-0.0821 0.08213,0.57491 0.191638,1.1772 0.355899,1.75212 -1.806874,-0.32852 -3.723255,0.41065 -5.393244,1.04032 -1.669989,0.60229 -2.901948,1.64261 -3.531616,3.36736 -1.149829,3.23047 0.43803,6.89897 3.558993,8.29519 1.779497,0.79393 3.750632,0.60229 5.612259,0.30114 1.533105,-0.24639 3.14834,-0.73917 4.298169,-1.83425 0.273768,-0.24639 0.492783,-0.52016 0.684421,-0.8213 0.136885,-0.16426 0.246392,-0.3559 0.3559,-0.57492 0.246392,0.0821 0.52016,0.13689 0.766552,0.21902 0.684422,0.24639 1.040321,0.87606 1.75212,0.38327 0.985567,-0.68442 2.053265,-2.54605 1.39622,-3.75063 -0.848683,-0.98557 -0.821306,-1.0677 -1.231959,-1.58786 z m -5.721766,6.1598 c -1.040321,0.84868 -2.409165,1.25934 -3.723254,1.4236 -2.299658,0.27377 -4.81833,-0.54754 -6.13242,-2.57343 -1.423597,-2.21753 -1.012944,-5.31111 0.903437,-7.11799 1.012944,-0.95819 2.463919,-1.61523 3.805385,-1.99851 1.505728,-0.41065 2.62818,-0.13688 3.914893,0.7118 -0.219015,-1.69736 -0.246392,-3.42211 -0.301146,-5.11947 -1.067698,0.21901 -2.135396,0.27377 -3.203094,0.41065 -1.095075,0.10951 -2.135396,0.32852 -3.203094,0.46541 -0.492783,0.0548 -0.985567,0.1095 -1.478351,0.1095 -0.301145,0 -0.547537,0.10951 -0.657045,-0.21901 l -0.164261,-0.65705 c -0.164261,-0.87606 -0.136884,-1.80687 0.05475,-2.65555 0.109507,-0.43803 0.109507,-0.90344 0.574914,-0.87606 0.602291,0.0548 1.177206,0.0548 1.75212,0.0274 1.095075,-0.0274 2.162773,-0.13688 3.203094,-0.27376 0.492784,-0.0548 0.985567,-0.10951 1.478351,-0.19164 0.410653,-0.0548 0.410653,-0.13689 0.383276,-0.54754 -0.05475,-0.82131 0,-1.69737 -0.191638,-2.49129 0.793929,-0.13689 1.615235,-0.0548 2.409165,-0.0821 0.52016,-0.0274 2.162772,-0.30114 2.381787,0.19164 0.273769,0.73918 0.383277,1.53311 0.520161,2.32704 0.08213,0.41065 0.02738,1.34146 0.602291,1.31409 0.547538,-0.0274 1.040321,-0.16426 1.615236,-0.13689 0.355899,0.0274 0.711798,0.0821 1.067698,0.19164 0.136884,0.41065 0.219015,0.84868 0.273768,1.28671 0.05475,0.32853 0.05475,0.68442 0.05475,1.58786 0,0.38328 -0.191638,0.30115 -0.547537,0.30115 -0.79393,0.0548 -1.642613,0 -2.463919,0.16426 -1.040321,0.21901 -0.301145,3.58637 -0.164261,4.35292 0.109507,0.76655 0.355899,1.53311 0.410653,2.29966 0.05475,0.52016 0,0.93081 0.465407,1.23196 0.602291,0.41065 1.095075,0.95819 1.560481,1.5331 0.191639,0.24639 0.383277,0.52016 0.602292,0.76655 0.219015,0.30115 0.109507,0.7118 -0.02738,1.0677 -0.08213,0.27377 -0.219015,0.52016 -0.43803,0.68442 -0.273769,0.21902 -0.739176,-0.24639 -1.040321,-0.38327 -0.766553,-0.3559 -1.560482,-0.60229 -2.327034,-0.98557 -0.246392,0.98557 -0.766553,2.87457 -1.971135,3.86014 z m -6.050289,-5.33849 c -0.657044,0.93081 0.410654,2.54605 1.368844,2.87457 1.231959,0.41065 2.19015,-0.27377 2.573426,-1.47835 0.355899,-1.12245 0.52016,-2.2449 -0.87606,-2.54605 -1.012944,-0.24639 -2.463918,0.27377 -3.06621,1.14983 z m 1.23196,1.7795 c -0.109508,-0.3559 -0.05475,-0.65705 0.136884,-0.93082 0.191638,-0.27377 0.219015,-0.68442 0.355899,-0.84868 0.164262,-0.68442 1.149829,-0.54754 1.587859,-0.27377 0.273769,0.16426 0.136884,0.73918 0.08213,1.01295 -0.109507,0.41065 -0.438029,0.73917 -0.848683,0.90343 -0.273768,0.10951 -1.122451,0.79393 -1.314089,0.13689 z m -9.089122,-15.9881 c -1.012944,-0.32852 -2.135395,-0.30114 -3.175717,-0.32852 -0.739175,-0.0274 -1.697366,-0.3559 -2.135396,0.43803 -0.301145,0.57492 -0.355899,1.28671 -0.410653,1.91638 -0.109507,1.17721 -0.08213,2.35441 0.02738,3.53162 0.191638,2.46392 0.43803,4.92784 0.684422,7.39175 0.246392,2.35441 0.301146,4.92784 1.040321,7.17274 0.191638,0.57492 0.383276,1.39622 1.122452,1.34147 0.848683,-0.0548 1.779496,-0.27377 2.518672,-0.68442 0.87606,-0.49278 1.067698,-1.20458 0.87606,-2.1354 -0.219015,-1.1772 -0.273769,-2.32703 -0.301146,-3.50424 -0.08213,-2.46392 0.05475,-4.90046 0.219015,-7.337 0.05475,-1.1772 0.191638,-2.35441 0.273769,-3.53161 0.08213,-1.17721 0.383276,-2.46392 0.301146,-3.64113 0,-0.38327 -0.766553,-0.54754 -1.040322,-0.62967 z m -0.602291,6.78947 c -0.684421,4.05177 0.05475,8.18568 0.520161,12.21008 0.05475,0.41066 0.109507,0.52016 -0.136885,0.82131 -0.219014,0.24639 -0.574914,0.3559 -0.876059,0.46541 -0.410653,0.16426 -0.848683,0.27376 -1.286713,0.35589 -0.301146,0.0548 -0.465407,0.16427 -0.629668,-0.16426 -0.109508,-0.21901 -0.191638,-0.43803 -0.273769,-0.65704 -0.574914,-1.66999 -0.657045,-3.58637 -0.87606,-5.31111 -0.520161,-4.07916 -0.136884,-8.21307 0.246392,-12.26484 0.02738,-0.38328 0.109507,-0.79393 0.109507,-1.17721 0.43803,-0.10951 0.87606,-0.21901 1.31409,-0.30114 0.958191,-0.19164 1.998512,-0.27377 2.901949,0.13688 0.109507,1.99851 -0.684422,3.94227 -1.012945,5.88603 z"
         style="font-style:normal;font-variant:normal;font-weight:normal;font-stretch:normal;font-family:KFhimajiWAKU;-inkscape-font-specification:KFhimajiWAKU"
         id="path3341" />
      <path
         d="m 116.56889,983.76268 c -0.49278,-0.19163 -0.95819,-0.41065 -1.47835,-0.54753 -0.3559,-0.10951 -0.32852,0.1095 -0.46541,0.41065 -0.27377,0.52016 -0.54753,1.04032 -0.93081,1.50573 -1.12245,1.31409 -3.03883,2.9567 -4.87308,2.13539 -1.75212,-0.76655 -1.97114,-2.73768 -1.91639,-4.43505 0.0821,-2.2449 0.0548,-4.46243 0.0274,-6.73471 -0.0274,-1.20458 -0.0547,-2.40917 0,-3.64112 0.0274,-0.6023 0.0548,-1.20459 0.10951,-1.80688 0.0274,-0.27377 0.24639,-0.95819 -0.0821,-1.12245 -1.97114,-0.93081 -4.40768,-1.31409 -6.5157,-0.79393 -0.657042,0.16426 -0.602288,0.19164 -0.629665,0.82131 0,0.57491 -0.02738,1.12245 -0.02738,1.69736 -0.02738,1.28672 -0.109507,2.54605 -0.219015,3.83276 -0.191638,2.46392 -0.410653,4.92784 -0.355899,7.39176 0.08213,3.58637 0.219015,7.44651 3.422106,9.69141 2.65556,1.86163 6.26931,2.46392 9.44502,1.7795 3.2031,-0.68442 5.72177,-2.65556 7.09061,-5.66701 0.38328,-0.82131 0.65705,-1.66999 0.84869,-2.54605 0.1095,-0.62967 0.0548,-0.7118 -0.49279,-0.95819 -0.95819,-0.43803 -1.97113,-0.68442 -2.9567,-1.01295 z m -0.19164,7.17274 c -0.73917,0.68443 -1.69736,1.09508 -2.65555,1.36885 -1.99852,0.54753 -4.29817,0.68442 -6.35144,0.54753 -1.889,-0.0821 -3.69588,-0.57491 -4.92784,-2.10801 -1.28671,-1.61524 -1.80687,-3.86014 -2.13539,-5.85866 -0.79393,-4.76357 -0.410654,-9.77354 0.65704,-14.45498 0.10951,-0.46541 0.27377,-0.27377 0.65705,-0.24639 l 0.87606,0.0821 c 0.60229,0.0548 1.1772,0.0548 1.75212,0.0821 0.57491,0 1.12245,0.0274 1.66999,0.1095 -0.0274,0.7118 -0.0548,1.4236 -0.10951,2.1354 -0.10951,2.49129 -0.27377,5.03734 -0.0274,7.52864 0.27377,3.01146 0.46541,8.81535 4.95522,8.15831 1.99851,-0.30115 3.17571,-1.99851 4.21603,-3.50424 0.10951,-0.13689 0.19164,-0.27377 0.27377,-0.41066 0.2464,0.16427 0.49279,0.30115 0.7118,0.43803 0.49279,0.30115 0.95819,0.57492 1.4236,0.87606 l 0.73918,0.41066 c -0.0821,0.27377 -0.16427,0.54753 -0.21902,0.8213 -0.13688,0.54754 -0.27377,1.09508 -0.38328,1.64262 -0.19163,0.84868 -0.4654,1.77949 -1.12245,2.38178 z m -1.58786,-14.20859 c 0.7118,-0.21902 0.93082,-0.27377 0.84869,-1.01295 -0.0821,-0.57491 -0.21902,-1.14983 -0.3559,-1.72474 -0.10951,-0.54754 -0.10951,-1.14983 -0.43803,-1.66999 -0.73918,-1.12245 -2.19015,-0.62967 -3.12097,0.0821 -0.13688,0.10951 -0.27376,0.27377 -0.38327,0.43803 -0.21902,0.30115 -0.0548,0.43803 0.0547,0.76655 0.16426,0.49279 0.27377,1.01295 0.43803,1.53311 0.13689,0.46541 0.54754,1.97113 1.14983,1.99851 0.19164,0.0274 1.28671,-0.21901 1.80687,-0.41065 z m -1.50572,-3.96965 c 0.16426,0 0.52016,0.0821 0.54753,0.0821 -0.13688,0.0274 0.41066,1.31409 0.46541,1.4236 0.13688,0.38328 0.30115,0.79393 0.41065,1.1772 0.0548,0.16427 0.0548,0.41066 -0.13688,0.46541 -0.24639,0.0548 -0.3559,0.0821 -0.60229,0.10951 -0.19164,0.0548 -0.41066,0.0821 -0.60229,0.13688 -0.30115,0.0548 -0.32853,-0.24639 -0.43803,-0.49278 -0.21902,-0.46541 -0.38328,-0.95819 -0.49279,-1.45097 -0.1095,-0.41066 -0.30114,-0.93082 -0.13688,-1.0677 0.27377,-0.21902 0.62967,-0.41066 0.98557,-0.38328 z m 6.29668,3.80539 c 0.30114,-0.19164 0.60229,-0.43803 0.73917,-0.79393 0.16426,-0.43803 -0.10951,-0.73918 -0.30114,-1.12245 -0.52016,-1.04033 -0.98557,-2.1354 -1.47835,-3.2031 -0.19164,-0.41065 -1.01295,-0.24639 -1.34147,-0.10951 -0.3559,0.16426 -0.7118,0.38328 -1.0677,0.57492 -0.19164,0.10951 -0.16426,0.43803 -0.30115,0.62967 -0.43803,0.71179 -0.0548,1.69736 0.2464,2.38178 0.27377,0.60229 0.73917,1.97114 1.50572,2.16278 0.82131,0.0821 1.4236,-0.19164 1.99852,-0.52016 z m -1.72475,-4.05178 c 0.32853,0.52016 0.79393,0.93081 1.09508,1.45097 0.19164,0.3559 0.32852,0.73918 0.32852,1.14983 0,0.27377 -0.49278,0.68442 -0.73917,0.84868 -1.31409,0.76656 -1.50573,-2.40916 -1.61524,-2.90194 0.0274,0.0548 0.62967,-0.54754 0.93081,-0.54754 z"
         style="font-style:normal;font-variant:normal;font-weight:normal;font-stretch:normal;font-family:KFhimajiWAKU;-inkscape-font-specification:KFhimajiWAKU"
         id="path3343" />
      <path
         d="m 148.13442,977.43863 c -0.43803,-0.54754 -0.95819,-1.04033 -1.47835,-1.47836 -0.24639,-0.19163 -0.49278,-0.38327 -0.73918,-0.54753 -0.3559,-0.24639 0.16427,-0.79393 0.32853,-1.12245 0.65704,-1.25934 1.04032,-1.72475 1.42359,-3.09359 0.13689,-0.49278 0.0274,-1.45097 -0.38327,-1.56048 -0.62967,-0.19164 -1.23196,-0.38328 -1.86163,-0.60229 -0.87606,-0.32853 -1.86163,-0.87606 -2.81982,-0.82131 -0.68442,0.0274 -0.84868,0.73918 -1.09507,1.25934 -0.41066,0.79393 -0.79393,1.58785 -1.17721,2.38178 -0.13688,0.30115 -0.21901,0.84869 -0.57491,0.73918 -0.3559,-0.13688 -0.7118,-0.21902 -1.0677,-0.30115 -0.7118,-0.1095 -1.4236,-0.16426 -2.1354,-0.16426 -1.42359,0.0274 -2.92932,0.30115 -4.21603,0.95819 -0.3559,-0.84868 -0.65705,-1.72474 -1.01295,-2.57342 -0.0547,-0.19164 -1.14983,0.1095 -1.28671,0.13688 -0.68442,0.13689 -1.34147,0.27377 -1.99851,0.49279 -0.52016,0.19163 -1.36885,0.4654 -1.7795,0.87606 -0.3559,0.35589 0.24639,2.05326 0.3559,2.49129 0.0821,0.3559 0.41065,0.95819 0.10951,1.20458 -0.32852,0.30115 -0.62967,0.62967 -0.90344,0.95819 -1.01294,1.23196 -1.66999,2.73769 -2.02589,4.2708 -0.65704,2.90194 -0.38327,6.48831 1.28672,9.03436 0.87606,1.34147 2.21752,2.29966 3.83276,2.4913 1.91638,0.24639 3.80538,-0.60229 5.36586,-1.69737 0.3559,0.68442 0.82131,1.31409 1.36885,1.86163 0.21901,0.19164 0.8213,-0.21902 1.01294,-0.30115 0.76655,-0.43803 1.99851,-1.06769 2.51867,-1.80687 0.30115,-0.43803 -0.19163,-1.45097 -0.32852,-1.91638 -0.13688,-0.41065 -0.24639,-0.84868 -0.3559,-1.25934 l 1.04032,-0.95819 c 1.34147,-1.31409 2.57343,-2.73768 3.83277,-4.1339 0.49278,0.68442 0.60229,4.05177 0.1095,4.95521 -0.32852,0.54754 -0.95819,1.28671 -1.25933,1.58786 -0.27377,0.30114 -0.0548,0.65704 0.0547,0.98556 0.3559,0.84869 0.76655,1.75212 1.36884,2.43655 0.62967,0.71179 1.80688,-0.21902 2.46392,-0.57492 3.77801,-2.10802 4.46243,-7.337 3.94227,-10.23895 -0.32852,-1.77949 -1.01294,-2.92932 -1.91638,-3.96964 z m -3.58637,13.63368 c -0.3559,0.19164 -0.49278,-0.24639 -0.68442,-0.54754 -0.21902,-0.38328 -0.41065,-0.79393 -0.57492,-1.20458 0.62967,-0.57492 1.17721,-1.23196 1.69737,-1.91638 0.57491,-0.79393 0.87606,-2.87457 0.49278,-3.99703 -0.4654,-1.34146 -1.20458,-2.65555 -2.27228,-3.53161 -0.84868,1.28671 -1.56048,2.68293 -2.43654,3.96964 -0.38327,0.60229 -0.8213,1.17721 -1.28671,1.72475 -0.21902,0.27377 -0.46541,0.54753 -0.7118,0.79393 -0.24639,0.21901 -0.65704,0.4654 -0.82131,0.76655 -0.19163,0.41065 0.32853,1.36884 0.43803,1.80687 0.0821,0.30115 0.13689,0.62967 0.16427,0.95819 0.0274,0.41066 -0.46541,0.65705 -0.76656,0.87606 -0.30114,0.19164 -0.60229,0.3559 -0.90343,0.49279 -0.3559,0.19163 -0.84869,0.57491 -1.12245,0.19163 -0.46541,-0.62966 -0.79393,-1.36884 -1.09508,-2.10802 -2.29966,1.56049 -5.36587,2.92933 -7.77503,0.84869 -2.05327,-1.75212 -2.9567,-4.87309 -2.51867,-7.50126 0.21901,-1.39623 0.8213,-2.73769 1.61523,-3.88752 0.43803,-0.62967 0.90344,-1.23196 1.4236,-1.75212 0.24639,-0.24639 0.49278,-0.46541 0.76655,-0.7118 0.38328,-0.32852 0.27377,-0.49278 0.10951,-0.90344 -0.27377,-0.84868 -0.57491,-1.64261 -0.79393,-2.49129 -0.13688,-0.43803 0.24639,-0.46541 0.60229,-0.65705 0.38328,-0.19163 0.79393,-0.3559 1.17721,-0.49278 0.32852,-0.13688 0.65704,-0.24639 0.98556,-0.32852 0.19164,-0.0274 0.3559,-0.0548 0.52016,-0.10951 0.10951,0.27377 0.19164,0.54754 0.27377,0.82131 0.2464,0.84868 0.43803,1.69736 0.57492,2.54605 2.87457,-1.20459 6.40619,-0.98557 9.28076,0.0821 0.41065,-1.31409 0.8213,-2.65556 1.25933,-3.96965 0.10951,-0.27377 0.19164,-0.54754 0.30115,-0.82131 0.13688,-0.3559 0.13688,-0.84868 0.54754,-0.79393 0.62966,0.10951 1.25933,0.21902 1.86162,0.41066 0.57492,0.19164 1.12245,0.52016 1.66999,0.79393 0.3559,0.19163 0.16426,0.30114 0.0548,0.65704 l -0.41066,1.04032 c -0.21901,0.60229 -0.4654,1.20459 -0.7118,1.83425 -0.13688,0.32853 -0.27376,0.68443 -0.38327,1.04032 -0.19164,0.49279 -0.21902,0.49279 0.21901,0.76656 2.02589,1.25933 3.36736,3.01145 3.69588,5.42062 0.30115,2.27228 0.38328,5.06472 -0.95819,7.03585 -0.95819,1.36885 -2.1354,2.16278 -3.50424,2.8472 z m -14.89302,-9.58191 c -0.62967,-0.41065 -1.20458,0.19164 -1.47835,0.73918 -0.16426,0.41065 -0.68442,1.09507 -0.62967,2.54605 0,0.65704 0.30115,1.39622 0.76656,1.75212 0.90343,0.65704 2.32703,0.62967 3.17571,-0.10951 1.14983,-0.98557 -0.13688,-2.84719 -0.84868,-3.6685 -0.38328,-0.43803 -0.52016,-0.98557 -0.98557,-1.25934 z m -0.95819,1.94376 c 0.0274,-0.24639 0.24639,-1.47835 0.65705,-1.14983 0.52016,0.41066 0.68442,1.01295 0.8213,1.58786 0.10951,0.38328 0.2464,0.73918 0.46541,1.0677 0.16426,0.21901 0.46541,0.43803 0.57491,0.7118 -0.68442,0.32852 -2.71031,-0.0548 -2.51867,-2.21753 z m 4.87309,-5.85865 c -0.57492,0.41065 -0.52017,1.12245 -0.32853,1.75212 0.27377,0.82131 0.52016,2.10802 1.20459,2.68293 0.60229,0.49279 0.95819,0.30115 1.45097,-0.19163 0.30115,-0.30115 0.7118,-0.46541 1.01294,-0.79393 0.38328,-0.41066 0.68443,-0.87606 0.95819,-1.36885 0.21902,-0.41065 0.93082,-1.28671 0.7118,-1.75212 -0.24639,-0.52016 -1.25933,-0.52016 -1.72474,-0.60229 -1.04032,-0.19164 -2.40916,-0.3559 -3.28522,0.27377 z m 1.69736,3.28522 c -0.24639,-0.62966 -0.65704,-0.76655 -0.68442,-1.47835 0,-0.24639 -0.30115,-1.09507 -0.30115,-1.06769 0.0548,-0.57492 2.87458,0.0548 3.17572,0.13688 -0.3559,0.54754 -1.75212,1.94376 -2.19015,2.40916 z"
         style="font-style:normal;font-variant:normal;font-weight:normal;font-stretch:normal;font-family:KFhimajiWAKU;-inkscape-font-specification:KFhimajiWAKU"
         id="path3345" />
      <path
         d="m 166.80545,976.58994 c 1.72474,-1.58786 5.50275,-4.81833 3.61374,-7.50126 -0.8213,-1.17721 -2.81982,-0.95819 -4.07915,-1.09507 -1.99851,-0.21902 -3.94227,-0.27377 -5.94078,-0.27377 -1.72475,0 -3.50424,0 -5.20161,0.16426 -0.54754,0.0548 -1.34146,0 -1.83425,0.27377 -0.65704,0.3559 -0.46541,1.61523 -0.41065,2.21752 0.0821,0.90344 0.0547,1.75212 0.16426,2.65556 0.10951,0.76655 0.0548,1.34147 0.87606,1.39622 0.87606,0.0547 1.72474,0.21902 2.57343,0.21902 0.93081,0.0274 1.86162,-0.0274 2.79244,-0.10951 -2.27228,2.13539 -4.51719,4.43505 -6.10505,7.14536 -0.27376,0.43803 -0.62966,0.93081 -0.68442,1.47835 -0.0547,0.62967 0.46541,1.12245 0.90344,1.56048 0.46541,0.43803 0.98557,0.87606 1.58786,1.12246 0.68442,0.27376 0.98556,0 1.42359,-0.46541 1.94376,-1.86163 4.68145,-3.06621 7.36438,-3.23047 1.31409,-0.0821 2.46392,0.21901 3.53162,1.01294 0.95819,0.7118 1.889,1.80688 1.50573,3.12097 -1.12245,-1.69737 -2.65556,-3.06621 -4.79096,-3.23048 -1.94375,-0.13688 -4.0244,0.68443 -5.42062,1.97114 -2.6008,2.40916 -2.35441,6.59783 0.73918,8.43208 2.9567,1.75212 7.03586,1.25933 10.10207,0.1095 1.889,-0.7118 3.69587,-1.83425 4.81832,-3.50424 1.0677,-1.64261 1.47836,-3.6685 1.31409,-5.61226 -0.0274,-0.16426 -0.19163,-1.66998 -0.30114,-2.19014 -0.76655,-3.23048 -4.35292,-5.58489 -8.54158,-5.66702 z m 5.66701,13.74319 c -0.93082,0.95819 -2.10802,1.66999 -3.36736,2.19015 -2.46392,1.0677 -5.58488,1.45098 -8.07617,0.13689 -1.20459,-0.65705 -2.24491,-1.66999 -2.40917,-3.12097 -0.16426,-1.61523 0.52016,-3.20309 1.64261,-4.32554 1.31409,-1.31409 3.01146,-1.20459 4.81833,-0.54754 1.88901,0.68442 2.90195,1.5331 3.91489,3.06621 0.87606,-1.4236 1.17721,-2.9567 0.10951,-4.3803 -0.8213,-1.14983 -2.02589,-1.97113 -3.42211,-2.29966 -2.90195,-0.65704 -6.13242,0.54754 -8.43207,2.35441 -0.57492,0.43803 -1.0677,0.93082 -1.53311,1.47835 -0.3559,0.38328 -1.23196,-0.27376 -1.58786,-0.52016 -0.38327,-0.24639 -1.04032,-0.76655 -0.68442,-1.1772 0.49279,-0.68442 0.87606,-1.39622 1.4236,-2.05327 1.20458,-1.36884 2.51867,-2.6008 3.77801,-3.91489 1.39622,-1.45097 2.73768,-2.87457 4.07915,-4.35292 -2.29966,0.3559 -4.57194,0.7118 -6.89897,0.76655 -0.57491,0 -1.17721,0 -1.7795,-0.0274 -0.1095,-0.54753 -0.1095,-1.09507 -0.1095,-1.66999 0.0274,-0.52016 0.0821,-1.06769 0.13688,-1.58785 0.0274,-0.27377 0.0548,-0.52016 0.13688,-0.76656 0.30115,-0.0274 0.6023,-0.0274 0.90344,-0.0274 2.29966,-0.0821 4.62669,-0.0274 6.92635,-0.27377 2.35441,-0.24639 4.76358,-0.68442 7.11799,-0.19164 0.43803,0.0821 0.68442,1.01294 0.71179,1.45097 0.0274,0.32853 -0.0274,0.84869 -0.27376,1.31409 -0.54754,1.17721 -1.86163,2.73769 -3.03884,4.0244 -0.24639,0.30115 -0.57491,0.62967 -0.68442,1.01295 -0.16426,0.52016 0.16426,0.41065 1.04032,0.46541 -0.13688,0.0274 3.77801,0.43803 5.50275,2.08064 1.83425,1.66999 2.54605,3.94227 2.08065,6.37881 -0.27377,1.34147 -0.84869,3.28522 -2.02589,4.51718 z m -10.12944,-0.24639 c 2.10801,1.39622 4.70882,-2.08064 2.49129,-3.23047 -0.54754,-0.27377 -1.91638,-0.41065 -2.62818,0.27377 -0.65704,0.62967 -0.95819,2.2449 0.13689,2.9567 z m 0.49278,-2.40916 c 0.46541,-0.46541 1.04032,-0.52016 1.4236,-0.0274 0.16426,0.21901 0.16426,1.28671 -0.2464,1.45097 -1.14982,0.46541 -1.36884,-1.23196 -1.1772,-1.42359 z"
         style="font-style:normal;font-variant:normal;font-weight:normal;font-stretch:normal;font-family:KFhimajiWAKU;-inkscape-font-specification:KFhimajiWAKU"
         id="path3347" />
      <path
         d="m 193.44315,984.803 c -0.49279,0.21902 -1.99852,0.84869 -2.95671,0.76656 -0.41065,-0.0274 -1.23195,0.13688 -1.36884,-0.32853 -0.21901,-0.41065 -0.16426,-1.09507 -0.21901,-1.56048 -0.32853,-2.98408 -0.43803,-5.74914 -1.12246,-8.92486 -0.16426,-1.42359 -0.32852,-2.87457 -0.27376,-4.29817 0.0274,-0.65704 0.38327,-1.01294 0.57491,-0.98556 0.62967,-0.13689 1.56048,-0.32853 2.19015,-0.32853 0.57491,0 1.50573,-0.16426 2.08064,-0.1095 0.98557,0.1095 2.9567,0.57491 2.9567,0.54753 -0.13688,1.0677 0,1.61524 0,2.08065 0,0.68442 -0.0547,1.36884 -0.1095,2.05326 -0.10951,1.4236 -0.27377,2.8472 -0.46541,4.27079 -0.13689,1.36885 -0.27377,2.76507 -0.49278,4.13391 -0.13689,0.87606 -0.46541,1.86163 -0.79393,2.68293 z m 0.87606,0.98557 c 0.38327,-0.84868 0.49278,-2.62818 0.65704,-3.53161 0.24639,-1.31409 0.49278,-2.65556 0.68442,-3.96965 0.16426,-1.36884 0.30115,-2.73769 0.38328,-4.10653 0.0821,-1.28671 0.62967,-3.86014 0.46541,-5.14685 -0.19164,-1.20459 -1.69737,-0.27377 -2.76507,-0.57492 -1.4236,-0.41065 -3.03883,-0.87606 -4.51718,-0.57491 -1.09508,0.21901 -2.65556,0.3559 -2.79244,1.58786 -0.13689,0.76655 0.30114,2.9567 0.3559,4.16128 0.19163,3.55899 0.4654,7.11799 1.1772,10.62223 0.13689,0.52016 0.0548,1.75212 0.43803,2.19015 0.46541,0.52016 1.36885,0.1095 2.02589,0.1095 1.14983,0 3.28523,0.41066 3.88752,-0.76655 z m -5.69439,3.83276 c 1.12245,-1.23196 3.58637,-1.06769 5.00996,-0.43803 0.54754,0.2464 0.65705,0.82131 0.62967,1.36885 -0.0274,0.30114 -0.68442,2.43654 -1.09507,2.02589 -0.79393,-0.3559 -1.12245,0.19163 -1.53311,0.32852 -0.7118,0.21901 -1.889,0.60229 -2.57342,0.13688 -0.54754,-0.38327 -0.7118,-1.5331 -0.73918,-2.13539 -0.0274,-0.41066 0.0274,-0.95819 0.30115,-1.28672 z m -0.54754,-0.87606 c -0.84868,0.46541 -0.57491,1.17721 -0.54754,2.68294 0.0274,0.84868 0.27377,1.91638 1.0677,2.38178 0.82131,0.46541 1.889,0.19164 2.73769,0.0548 0.68442,-0.10951 1.28671,0.0821 1.94376,-0.19164 1.09507,-0.46541 1.66998,-1.889 1.86162,-3.01146 0.13689,-0.95819 -0.0821,-1.91638 -0.95819,-2.43654 -1.75212,-1.06769 -4.8457,-0.49278 -6.10504,0.52016 z"
         style="font-style:normal;font-variant:normal;font-weight:normal;font-stretch:normal;font-family:KFhimajiWAKU;-inkscape-font-specification:KFhimajiWAKU"
         id="path3349" />
    </g>
  </g>
</svg>
